PathFileType	4	(X/Y/Z)	C:/Users/beibeiliu/ov580/test_trc/User2\sequence.11_training_dense_left.trc
DataRate	CameraRate	NumFrames	NumMarkers	Units	OrigDataRate	OrigDataStartFrame	OrigNumFrames
120	120	11	19	mm	120	1	76
Frame#	Time	ThumbCMC			ThumbMCP			ThumbIP			ThumbTip			IndexMCP			IndexPIP			IndexTip			MiddleMCP			MiddlePIP			MiddleTip			RingMCP			RingPIP			RingTip			PinkyMCP			PinkyPIP			PinkyTip			BackHand1			BackHand2			BackHand3	
		X0	Y0	Z0	X1	Y1	Z1	X2	Y2	Z2	X3	Y3	Z3	X4	Y4	Z4	X5	Y5	Z5	X6	Y6	Z6	X7	Y7	Z7	X8	Y8	Z8	X9	Y9	Z9	X10	Y10	Z10	X11	Y11	Z11	X12	Y12	Z12	X13	Y13	Z13	X14	Y14	Z14	X15	Y15	Z15	X16	Y16	Z16	X17	Y17	Z17	X18	Y18	Z18	
0	0	-219.212	67.6473	-3.08596	-187.163	53.0254	-20.7623	-159.609	47.1788	-43.2705	-141.332	34.768	-62.1471	-234.159	43.8808	-81.4963	-216.384	38.0111	-102.783	-194.974	26.9116	-125.402	-224.793	24.5077	-81.9006	-187.912	17.0797	-85.0521	-166.197	18.0836	-51.9132	-229.89	4.3255	-79.9469	-209.951	-2.00838	-95.9954	-180.749	-5.51108	-106.205	-246.868	-18.4999	-55.7235	-245.111	-27.8057	-77.0495	-246.139	-34.0872	-103.252	-263.714	13.1812	-25.3956	-271.978	18.2382	11.8512	-264.538	49.9714	-12.9623	
1	0.00833333	-240.349	70.1971	-10.0298	-205.84	72.1214	-27.404	-179.633	69.8227	-47.6387	-155.946	67.9271	-65.305	-237.682	35.4378	-84.3629	-215.805	33.6946	-106.08	-191.595	31.56	-123.582	-221.921	23.6252	-84.9498	-189.546	30.9472	-89.5717	-165.746	44.726	-58.1176	-218.755	-1.42907	-75.6693	-197.274	5.18556	-93.5844	-165.247	14.1206	-106.327	-225.253	-17.5141	-48.5941	-217.899	-32.498	-76.768	-215.53	-40.3597	-95.6389	-254.203	0.959773	-20.4035	-267.72	6.91853	8.47857	-271.73	36.5693	-18.517	
2	0.0166667	-258.824	64.745	-14.0395	-229.265	77.4056	-31.9491	-201.188	86.3666	-59.3343	-183.249	89.9586	-70.1509	-239.098	29.4017	-90.8567	-218.869	31.2198	-105.723	-199.077	39.4346	-124.533	-220.987	18.5819	-83.0559	-192.696	41.0429	-91.9012	-176.847	67.2488	-68.9838	-211.704	4.0865	-73.5194	-186.489	15.8649	-94.5759	-164.038	31.8283	-106.427	-206.837	-15.4319	-45.2951	-193.669	-25.7534	-69.0422	-186.828	-32.5714	-90.114	-241.831	-6.31101	-18.5877	-256.694	-0.691435	9.77324	-272.096	19.631	-16.7975	
3	0.025	-270.439	56.9527	-21.7879	-244.907	71.9955	-40.4097	-224.665	84.5486	-66.8141	-210.024	94.3011	-81.2719	-245.871	18.8805	-89.655	-230.318	27.1368	-113.322	-210.173	34.0585	-125.539	-228.945	16.243	-83.7608	-203.731	45.0014	-95.9214	-191.755	73.7265	-75.4925	-213.448	3.29055	-77.3159	-194.286	15.7052	-98.4823	-181.602	33.4576	-113.449	-205.842	-8.62654	-45.9808	-193.288	-20.6638	-70.307	-183.079	-30.9327	-89.4638	-236.97	-7.36406	-20.1816	-247.678	-6.5179	12.3041	-272.932	9.32879	-17.8339	
4	0.0333333	-278.16	49.405	-16.6389	-258.657	65.3992	-47.238	-245.49	78.7699	-75.4076	-232.338	86.4028	-95.7313	-265.685	9.32011	-88.3072	-251.478	14.7593	-111.081	-236.262	24.1031	-133.617	-242.741	12.4524	-90.6346	-223.035	43.0922	-99.8585	-212.08	69.7205	-82.1385	-223.366	-5.49276	-78.3683	-213.469	7.3752	-106.981	-199.56	26.0783	-125.927	-209.633	-16.4436	-49.1448	-205.088	-25.1892	-73.2498	-195.197	-37.422	-94.4581	-242.193	-12.5945	-18.9695	-253.711	-6.81925	10.7001	-277.247	4.27068	-14.2492	
5	0.0416667	-282.944	44.16	-20.3838	-267.767	57.6145	-49.3735	-255.989	64.4402	-83.3011	-246.346	72.6315	-105.051	-280.764	1.01398	-85.3537	-263.823	3.86398	-113.095	-255.006	11.0693	-135.365	-253.067	1.47323	-89.0611	-237.707	30.2349	-103.56	-224.152	58.057	-80.4135	-236.85	-15.5592	-79.8766	-227.943	-6.16225	-109.72	-218.495	9.1687	-130.181	-222.771	-23.6756	-51.038	-218.63	-34.4604	-73.5144	-210.178	-46.0237	-97.7116	-251.652	-14.2883	-15.813	-254.28	-8.59132	14.029	-285.599	2.86162	-10.4444	
6	0.05	-288.849	42.3648	-20.7762	-274.72	52.9633	-53.4405	-263.371	56.9311	-82.4887	-255.304	59.0368	-107.217	-286.889	-8.77382	-84.9974	-282.218	-5.49348	-108.501	-268.244	-1.84803	-133.949	-263.989	-9.19332	-88.3212	-251.218	16.5779	-105.324	-238.008	48.3168	-80.1279	-252.974	-23.1211	-76.7662	-243.742	-18.6909	-107.301	-236.586	-1.57898	-135.981	-230.167	-31.9353	-50.3325	-228.753	-47.7748	-76.9192	-225.913	-57.7575	-98.7442	-257.08	-15.7537	-14.655	-255.658	-10.2965	17.1823	-287.895	-1.70058	-4.75237	
7	0.0583333	-292.078	42.7516	-15.4405	-278.512	49.9476	-50.7997	-272.044	50.5807	-88.3836	-264.164	52.7152	-110.876	-298.664	-14.4838	-79.3128	-292.593	-12.5172	-109.031	-280.358	-11.128	-130.647	-276.409	-17.1742	-85.0803	-261.526	6.43012	-104.259	-253.735	40.0615	-78.2197	-263.833	-30.8099	-74.6998	-253.913	-29.0514	-105.448	-248.245	-13.9708	-131.117	-241.154	-39.8551	-48.9853	-242.409	-53.3091	-70.7688	-242.12	-66.7945	-98.4984	-257.997	-21.3389	-11.4182	-258.737	-12.0027	17.2769	-295.025	-2.24674	-1.6877	
8	0.0666667	-294.003	38.9647	-15.8207	-282.33	42.0603	-51.9097	-276.735	40.2954	-84.5303	-271.656	38.308	-112.405	-311.346	-19.0458	-70.2757	-305.854	-20.5309	-103.37	-298.56	-15.3187	-131.428	-290.957	-26.2964	-76.4646	-272.032	-3.0023	-102.08	-263.229	27.3633	-79.7048	-275.37	-40.0765	-71.1039	-270.354	-39.3906	-101.014	-267.104	-21.6735	-130.04	-251.174	-43.0533	-42.9888	-258.099	-60.8469	-64.857	-261.255	-75.7662	-90.7698	-267.179	-24.1782	-10.1268	-260.821	-12.67	21.9599	-296.619	-2.19783	3.20763	
9	0.075	-295.338	35.301	-12.4334	-289.348	39.3269	-53.2192	-287.158	36.9148	-85.6782	-280.047	28.6133	-108.945	-327.607	-21.0344	-65.1502	-323.559	-25.4133	-92.2781	-316.331	-22.3854	-122.757	-310.083	-31.2368	-73.4151	-294.581	-12.1823	-100.478	-275.187	16.4371	-81.8564	-297.223	-46.1115	-67.1015	-291.799	-49.9533	-95.4279	-287.717	-33.4385	-124.974	-271.484	-48.4013	-40.4397	-281.433	-71.4892	-62.098	-290.564	-81.8631	-84.505	-275.757	-31.8496	-6.61792	-269.227	-20.3565	20.4183	-303.586	-3.17832	8.05	
10	0.0833333	-299.456	34.2906	-14.3133	-292.979	35.3421	-52.1518	-293.264	30.7734	-87.235	-291.863	23.7018	-113.342	-343.209	-15.8852	-61.7437	-346.151	-16.5358	-89.7903	-337.799	-16.1929	-121.283	-329.682	-28.1029	-71.8766	-313.385	-13.2001	-97.8415	-282.673	8.01678	-83.0743	-315.168	-49.3819	-63.7017	-319.055	-49.4137	-93.3871	-314.622	-34.1694	-124.704	-293.906	-53.3526	-39.6603	-311.91	-72.7708	-58.1895	-324.589	-80.3922	-80.4725	-290.936	-35.7745	-6.07096	-280.153	-25.1225	18.2639	-310.876	-4.67809	9.46589	
